<svg width="24" height="22" viewBox="0 0 24 22" fill="none" xmlns="http://www.w3.org/2000/svg">
<path d="M23.2383 4.75469C22.8718 3.90604 22.3433 3.137 21.6824 2.49063C21.0211 1.84233 20.2413 1.32713 19.3855 0.973051C18.4982 0.604438 17.5464 0.415761 16.5855 0.417973C15.2375 0.417973 13.9223 0.787113 12.7793 1.48438C12.5059 1.65118 12.2461 1.83438 12 2.03399C11.7539 1.83438 11.4941 1.65118 11.2207 1.48438C10.0777 0.787113 8.7625 0.417973 7.41445 0.417973C6.44375 0.417973 5.50312 0.60391 4.61445 0.973051C3.75586 1.32852 2.98203 1.83985 2.31758 2.49063C1.65585 3.13628 1.12724 3.9055 0.761719 4.75469C0.381641 5.63789 0.1875 6.57579 0.1875 7.54102C0.1875 8.45157 0.373438 9.40039 0.742578 10.3656C1.05156 11.1723 1.49453 12.009 2.06055 12.8539C2.95742 14.191 4.19062 15.5856 5.72187 16.9992C8.25937 19.3426 10.7723 20.9613 10.8789 21.027L11.527 21.4426C11.8141 21.6258 12.1832 21.6258 12.4703 21.4426L13.1184 21.027C13.225 20.9586 15.7352 19.3426 18.2754 16.9992C19.8066 15.5856 21.0398 14.191 21.9367 12.8539C22.5027 12.009 22.9484 11.1723 23.2547 10.3656C23.6238 9.40039 23.8098 8.45157 23.8098 7.54102C23.8125 6.57579 23.6184 5.63789 23.2383 4.75469V4.75469Z" fill="#909090"/>
</svg>
