<svg width="28" height="28" viewBox="0 0 28 28" fill="none" xmlns="http://www.w3.org/2000/svg">
<path d="M27.7445 0.255503C27.8656 0.376834 27.9485 0.531083 27.9827 0.699088C28.0169 0.867093 28.001 1.04145 27.937 1.2005L17.7538 26.6578C17.664 26.8819 17.5142 27.077 17.3207 27.2215C17.1272 27.3661 16.8976 27.4544 16.6572 27.4768C16.4167 27.4993 16.1748 27.4549 15.9579 27.3487C15.741 27.2425 15.5577 27.0785 15.428 26.8748L9.8665 18.1335L1.12525 12.572C0.921059 12.4425 0.756618 12.2591 0.650075 12.042C0.543532 11.8249 0.499029 11.5826 0.521476 11.3418C0.543924 11.1011 0.632449 10.8712 0.777284 10.6776C0.922119 10.4839 1.11763 10.3341 1.34225 10.2445L26.7995 0.0647527C26.9586 0.000724148 27.1329 -0.0151654 27.3009 0.0190579C27.4689 0.0532812 27.6232 0.136109 27.7445 0.257253V0.255503ZM11.613 17.6225L16.4448 25.214L24.7275 4.508L11.613 17.6225ZM23.4903 3.27075L2.78425 11.5535L10.3775 16.3835L23.492 3.27075H23.4903Z" fill="#909090"/>
</svg>
