<svg width="100" height="100" viewBox="0 0 100 100" fill="none" xmlns="http://www.w3.org/2000/svg">
<circle cx="50" cy="50" r="50" fill="#1A2226"/>
<path d="M30.0562 37.1172H34.4482L39.5239 54.1387L44.5825 37.1172H48.4619L41.3867 62H37.644L30.0562 37.1172ZM28.2788 37.1172H32.4658L33.1152 53.5234V62H28.2788V37.1172ZM46.5479 37.1172H50.752V62H45.9326V53.5234L46.5479 37.1172Z" fill="#F2D0BD"/>
<path d="M63.8428 41.5605L58.4937 62H53.2129L60.9888 37.1172H64.2871L63.8428 41.5605ZM68.064 62L62.6807 41.5605L62.1851 37.1172H65.5347L73.3789 62H68.064ZM68.252 52.7202V56.873H57.0239V52.7202H68.252Z" fill="#D98989"/>
<path d="M26.2622 65.418H52.8027V67.127H26.2622V65.418Z" fill="#F2D0BD"/>
<path d="M52.8198 65.418H73.7207V67.127H52.8198V65.418Z" fill="#D98989"/>
</svg>
